<?xml version="1.0" encoding="UTF-8" standalone="no"?>
<!DOCTYPE svg PUBLIC "-//W3C//DTD SVG 1.1//EN"
 "http://www.w3.org/Graphics/SVG/1.1/DTD/svg11.dtd">
<!-- Generated by graphviz version 8.1.0 (20230707.0739)
 -->
<!-- Pages: 1 -->
<svg width="477pt" height="332pt"
 viewBox="0.00 0.00 477.17 332.00" xmlns="http://www.w3.org/2000/svg" xmlns:xlink="http://www.w3.org/1999/xlink">
<g id="graph0" class="graph" transform="scale(1 1) rotate(0) translate(4 328)">
<polygon fill="white" stroke="none" points="-4,4 -4,-328 473.17,-328 473.17,4 -4,4"/>
<!-- 1 -->
<g id="node1" class="node">
<title>1</title>
<ellipse fill="none" stroke="black" cx="327.59" cy="-306" rx="28.59" ry="18"/>
<text text-anchor="middle" x="327.59" y="-301.32" font-family="Times,serif" font-size="14.00">f(5)</text>
</g>
<!-- 2 -->
<g id="node2" class="node">
<title>2</title>
<ellipse fill="none" stroke="black" cx="252.59" cy="-234" rx="28.59" ry="18"/>
<text text-anchor="middle" x="252.59" y="-229.32" font-family="Times,serif" font-size="14.00">f(4)</text>
</g>
<!-- 1&#45;&gt;2 -->
<g id="edge1" class="edge">
<title>1&#45;&gt;2</title>
<path fill="none" stroke="black" d="M312.05,-290.5C301.59,-280.73 287.61,-267.69 275.84,-256.7"/>
<polygon fill="black" stroke="black" points="278.8,-254.75 269.11,-250.49 274.03,-259.87 278.8,-254.75"/>
</g>
<!-- 11 -->
<g id="node11" class="node">
<title>11</title>
<ellipse fill="none" stroke="black" cx="365.59" cy="-234" rx="28.59" ry="18"/>
<text text-anchor="middle" x="365.59" y="-229.32" font-family="Times,serif" font-size="14.00">f(3)</text>
</g>
<!-- 1&#45;&gt;11 -->
<g id="edge10" class="edge">
<title>1&#45;&gt;11</title>
<path fill="none" stroke="black" d="M336.59,-288.41C341.04,-280.22 346.51,-270.14 351.5,-260.95"/>
<polygon fill="black" stroke="black" points="354.95,-262.93 356.64,-252.47 348.8,-259.59 354.95,-262.93"/>
</g>
<!-- 3 -->
<g id="node3" class="node">
<title>3</title>
<ellipse fill="none" stroke="black" cx="140.59" cy="-162" rx="28.59" ry="18"/>
<text text-anchor="middle" x="140.59" y="-157.32" font-family="Times,serif" font-size="14.00">f(3)</text>
</g>
<!-- 2&#45;&gt;3 -->
<g id="edge2" class="edge">
<title>2&#45;&gt;3</title>
<path fill="none" stroke="black" d="M232.82,-220.65C215.23,-209.65 189.27,-193.43 169.37,-180.99"/>
<polygon fill="black" stroke="black" points="171.49,-177.56 161.15,-175.23 167.78,-183.5 171.49,-177.56"/>
</g>
<!-- 8 -->
<g id="node8" class="node">
<title>8</title>
<ellipse fill="none" stroke="black" cx="252.59" cy="-162" rx="28.59" ry="18"/>
<text text-anchor="middle" x="252.59" y="-157.32" font-family="Times,serif" font-size="14.00">f(2)</text>
</g>
<!-- 2&#45;&gt;8 -->
<g id="edge7" class="edge">
<title>2&#45;&gt;8</title>
<path fill="none" stroke="black" d="M252.59,-215.7C252.59,-208.24 252.59,-199.32 252.59,-190.97"/>
<polygon fill="black" stroke="black" points="256.09,-191.1 252.59,-181.1 249.09,-191.1 256.09,-191.1"/>
</g>
<!-- 4 -->
<g id="node4" class="node">
<title>4</title>
<ellipse fill="none" stroke="black" cx="65.59" cy="-90" rx="28.59" ry="18"/>
<text text-anchor="middle" x="65.59" y="-85.33" font-family="Times,serif" font-size="14.00">f(2)</text>
</g>
<!-- 3&#45;&gt;4 -->
<g id="edge3" class="edge">
<title>3&#45;&gt;4</title>
<path fill="none" stroke="black" d="M125.05,-146.5C114.59,-136.73 100.61,-123.69 88.84,-112.7"/>
<polygon fill="black" stroke="black" points="91.8,-110.75 82.11,-106.49 87.03,-115.87 91.8,-110.75"/>
</g>
<!-- 7 -->
<g id="node7" class="node">
<title>7</title>
<ellipse fill="none" stroke="black" cx="140.59" cy="-90" rx="28.59" ry="18"/>
<text text-anchor="middle" x="140.59" y="-85.33" font-family="Times,serif" font-size="14.00">f(1)</text>
</g>
<!-- 3&#45;&gt;7 -->
<g id="edge6" class="edge">
<title>3&#45;&gt;7</title>
<path fill="none" stroke="black" d="M140.59,-143.7C140.59,-136.24 140.59,-127.32 140.59,-118.97"/>
<polygon fill="black" stroke="black" points="144.09,-119.1 140.59,-109.1 137.09,-119.1 144.09,-119.1"/>
</g>
<!-- 5 -->
<g id="node5" class="node">
<title>5</title>
<ellipse fill="none" stroke="black" cx="28.59" cy="-18" rx="28.59" ry="18"/>
<text text-anchor="middle" x="28.59" y="-13.32" font-family="Times,serif" font-size="14.00">f(1)</text>
</g>
<!-- 4&#45;&gt;5 -->
<g id="edge4" class="edge">
<title>4&#45;&gt;5</title>
<path fill="none" stroke="black" d="M56.82,-72.41C52.49,-64.22 47.16,-54.14 42.3,-44.95"/>
<polygon fill="black" stroke="black" points="45.06,-43.68 37.29,-36.47 38.87,-46.95 45.06,-43.68"/>
</g>
<!-- 6 -->
<g id="node6" class="node">
<title>6</title>
<ellipse fill="none" stroke="black" cx="103.59" cy="-18" rx="28.59" ry="18"/>
<text text-anchor="middle" x="103.59" y="-13.32" font-family="Times,serif" font-size="14.00">f(0)</text>
</g>
<!-- 4&#45;&gt;6 -->
<g id="edge5" class="edge">
<title>4&#45;&gt;6</title>
<path fill="none" stroke="black" d="M74.59,-72.41C79.04,-64.22 84.51,-54.14 89.5,-44.95"/>
<polygon fill="black" stroke="black" points="92.95,-46.93 94.64,-36.47 86.8,-43.59 92.95,-46.93"/>
</g>
<!-- 9 -->
<g id="node9" class="node">
<title>9</title>
<ellipse fill="none" stroke="black" cx="215.59" cy="-90" rx="28.59" ry="18"/>
<text text-anchor="middle" x="215.59" y="-85.33" font-family="Times,serif" font-size="14.00">f(1)</text>
</g>
<!-- 8&#45;&gt;9 -->
<g id="edge8" class="edge">
<title>8&#45;&gt;9</title>
<path fill="none" stroke="black" d="M243.82,-144.41C239.49,-136.22 234.16,-126.14 229.3,-116.95"/>
<polygon fill="black" stroke="black" points="232.06,-115.68 224.29,-108.47 225.87,-118.95 232.06,-115.68"/>
</g>
<!-- 10 -->
<g id="node10" class="node">
<title>10</title>
<ellipse fill="none" stroke="black" cx="290.59" cy="-90" rx="28.59" ry="18"/>
<text text-anchor="middle" x="290.59" y="-85.33" font-family="Times,serif" font-size="14.00">f(0)</text>
</g>
<!-- 8&#45;&gt;10 -->
<g id="edge9" class="edge">
<title>8&#45;&gt;10</title>
<path fill="none" stroke="black" d="M261.59,-144.41C266.04,-136.22 271.51,-126.14 276.5,-116.95"/>
<polygon fill="black" stroke="black" points="279.95,-118.93 281.64,-108.47 273.8,-115.59 279.95,-118.93"/>
</g>
<!-- 12 -->
<g id="node12" class="node">
<title>12</title>
<ellipse fill="none" stroke="black" cx="365.59" cy="-162" rx="28.59" ry="18"/>
<text text-anchor="middle" x="365.59" y="-157.32" font-family="Times,serif" font-size="14.00">f(2)</text>
</g>
<!-- 11&#45;&gt;12 -->
<g id="edge11" class="edge">
<title>11&#45;&gt;12</title>
<path fill="none" stroke="black" d="M365.59,-215.7C365.59,-208.24 365.59,-199.32 365.59,-190.97"/>
<polygon fill="black" stroke="black" points="369.09,-191.1 365.59,-181.1 362.09,-191.1 369.09,-191.1"/>
</g>
<!-- 15 -->
<g id="node15" class="node">
<title>15</title>
<ellipse fill="none" stroke="black" cx="440.59" cy="-162" rx="28.59" ry="18"/>
<text text-anchor="middle" x="440.59" y="-157.32" font-family="Times,serif" font-size="14.00">f(1)</text>
</g>
<!-- 11&#45;&gt;15 -->
<g id="edge14" class="edge">
<title>11&#45;&gt;15</title>
<path fill="none" stroke="black" d="M381.13,-218.5C391.58,-208.73 405.56,-195.69 417.34,-184.7"/>
<polygon fill="black" stroke="black" points="419.14,-187.87 424.07,-178.49 414.37,-182.75 419.14,-187.87"/>
</g>
<!-- 13 -->
<g id="node13" class="node">
<title>13</title>
<ellipse fill="none" stroke="black" cx="365.59" cy="-90" rx="28.59" ry="18"/>
<text text-anchor="middle" x="365.59" y="-85.33" font-family="Times,serif" font-size="14.00">f(1)</text>
</g>
<!-- 12&#45;&gt;13 -->
<g id="edge12" class="edge">
<title>12&#45;&gt;13</title>
<path fill="none" stroke="black" d="M365.59,-143.7C365.59,-136.24 365.59,-127.32 365.59,-118.97"/>
<polygon fill="black" stroke="black" points="369.09,-119.1 365.59,-109.1 362.09,-119.1 369.09,-119.1"/>
</g>
<!-- 14 -->
<g id="node14" class="node">
<title>14</title>
<ellipse fill="none" stroke="black" cx="440.59" cy="-90" rx="28.59" ry="18"/>
<text text-anchor="middle" x="440.59" y="-85.33" font-family="Times,serif" font-size="14.00">f(0)</text>
</g>
<!-- 12&#45;&gt;14 -->
<g id="edge13" class="edge">
<title>12&#45;&gt;14</title>
<path fill="none" stroke="black" d="M381.13,-146.5C391.58,-136.73 405.56,-123.69 417.34,-112.7"/>
<polygon fill="black" stroke="black" points="419.14,-115.87 424.07,-106.49 414.37,-110.75 419.14,-115.87"/>
</g>
</g>
</svg>
