<?xml version="1.0" standalone="no"?>
<svg xmlns="http://www.w3.org/2000/svg" xmlns:xlink="http://www.w3.org/1999/xlink" width="242pt" height="260pt" viewBox="0.00 0.00 242.00 260.00">
<g id="graph0" class="graph" transform="translate(27.139188271082887,220.6886402869203) scale(0.7169776240079136)" data-name="LevelOrder">

<polygon fill="white" stroke="none" points="-4,4 -4,-256 238,-256 238,4 -4,4"/>
<!-- 1 -->
<g id="node1" class="node" pointer-events="visible" data-name="1">

<ellipse fill="none" stroke="black" cx="99" cy="-234" rx="27" ry="18"/>
<text text-anchor="middle" x="99" y="-229.8" font-family="Times,serif" font-size="14.00">1</text>
</g>
<!-- 3 -->
<g id="node2" class="node" pointer-events="visible" data-name="3">

<ellipse fill="none" stroke="black" cx="27" cy="-162" rx="27" ry="18"/>
<text text-anchor="middle" x="27" y="-157.8" font-family="Times,serif" font-size="14.00">3</text>
</g>
<!-- 1&#45;&#45;3 -->
<g id="edge1" class="edge" data-name="1--3">

<path fill="none" stroke="black" d="M84.08,-218.5C71.72,-206.48 54.25,-189.49 41.9,-177.49"/>
</g>
<!-- 5 -->
<g id="node3" class="node" pointer-events="visible" data-name="5">

<ellipse fill="none" stroke="black" cx="99" cy="-162" rx="27" ry="18"/>
<text text-anchor="middle" x="99" y="-157.8" font-family="Times,serif" font-size="14.00">5</text>
</g>
<!-- 1&#45;&#45;5 -->
<g id="edge2" class="edge" data-name="1--5">

<path fill="none" stroke="black" d="M99,-215.7C99,-204.85 99,-190.92 99,-180.1"/>
</g>
<!-- 6 -->
<g id="node4" class="node" pointer-events="visible" data-name="6">

<ellipse fill="none" stroke="black" cx="171" cy="-162" rx="27" ry="18"/>
<text text-anchor="middle" x="171" y="-157.8" font-family="Times,serif" font-size="14.00">6</text>
</g>
<!-- 1&#45;&#45;6 -->
<g id="edge3" class="edge" data-name="1--6">

<path fill="none" stroke="black" d="M113.92,-218.5C126.28,-206.48 143.75,-189.49 156.1,-177.49"/>
</g>
<!-- 2 -->
<g id="node5" class="node" pointer-events="visible" data-name="2">

<ellipse fill="none" stroke="black" cx="27" cy="-90" rx="27" ry="18"/>
<text text-anchor="middle" x="27" y="-85.8" font-family="Times,serif" font-size="14.00">2</text>
</g>
<!-- 3&#45;&#45;2 -->
<g id="edge4" class="edge" data-name="3--2">

<path fill="none" stroke="black" d="M27,-143.7C27,-132.85 27,-118.92 27,-108.1"/>
</g>
<!-- 4 -->
<g id="node6" class="node" pointer-events="visible" data-name="4">

<ellipse fill="none" stroke="black" cx="135" cy="-90" rx="27" ry="18"/>
<text text-anchor="middle" x="135" y="-85.8" font-family="Times,serif" font-size="14.00">4</text>
</g>
<!-- 6&#45;&#45;4 -->
<g id="edge6" class="edge" data-name="6--4">

<path fill="none" stroke="black" d="M162.65,-144.76C156.83,-133.46 149.11,-118.44 143.3,-107.15"/>
</g>
<!-- 7 -->
<g id="node8" class="node" pointer-events="visible" data-name="7">

<ellipse fill="none" stroke="black" cx="207" cy="-90" rx="27" ry="18"/>
<text text-anchor="middle" x="207" y="-85.8" font-family="Times,serif" font-size="14.00">7</text>
</g>
<!-- 6&#45;&#45;7 -->
<g id="edge7" class="edge" data-name="6--7">

<path fill="none" stroke="black" d="M179.35,-144.76C185.17,-133.46 192.89,-118.44 198.7,-107.15"/>
</g>
<!-- 8 -->
<g id="node7" class="node" pointer-events="visible" data-name="8">

<ellipse fill="none" stroke="black" cx="135" cy="-18" rx="27" ry="18"/>
<text text-anchor="middle" x="135" y="-13.8" font-family="Times,serif" font-size="14.00">8</text>
</g>
<!-- 4&#45;&#45;8 -->
<g id="edge5" class="edge" data-name="4--8">

<path fill="none" stroke="black" d="M135,-71.7C135,-60.85 135,-46.92 135,-36.1"/>
</g>
</g>
</svg>